Coordinates
version=1
nRows=9
nColumns=36
inDegrees=yes

Units are S.I. units (second, meters, Newtons, ...)
If the header above contains a line with 'inDegrees', this indicates whether rotational values are in degrees (yes) or radians (no).

endheader
time	pelvis_tilt	pelvis_list	pelvis_rotation	pelvis_tx	pelvis_ty	pelvis_tz	hip_flexion_r	hip_adduction_r	hip_rotation_r	knee_angle_r	knee_angle_r_beta	ankle_angle_r	subtalar_angle_r	mtp_angle_r	hip_flexion_l	hip_adduction_l	hip_rotation_l	knee_angle_l	knee_angle_l_beta	ankle_angle_l	subtalar_angle_l	mtp_angle_l	lumbar_extension	lumbar_bending	lumbar_rotation	arm_flex_r	arm_add_r	arm_rot_r	elbow_flex_r	pro_sup_r	arm_flex_l	arm_add_l	arm_rot_l	elbow_flex_l	pro_sup_l
     29.98333330	     15.91089816	     -0.00798359	     -1.75305699	      0.76651248	      1.04547519	      0.67545829	    -13.65748880	     -3.39784133	      1.91124906	     52.35430412	      0.91375498	    -15.83453538	    -12.53142550	     -7.49999987	      1.60572277	      2.14794038	      2.75927933	     17.64372341	      0.30794107	      1.16351703	     -6.03622620	     -7.49999987	    -29.59758568	     -3.21977929	      6.09771636	      1.92697848	    -19.75172713	      2.96361989	     47.67204093	     65.71036636	      8.63275890	     -9.23860350	     17.68806965	     15.47984319	     72.50119998
     30.00000000	     16.08415012	     -0.10092679	     -2.19031705	      0.76634309	      1.04701846	      0.67473625	    -10.71698770	     -3.35784891	      2.33302381	     56.71319651	      0.98983201	    -14.35178907	    -12.45316705	     -7.49999987	     -0.46447484	      2.23996482	      2.47179201	     16.59848160	      0.28969815	      1.76888274	     -6.17369259	     -7.49999987	    -29.81830730	     -3.29464204	      6.50386480	      0.61225814	    -19.17973021	      2.56157981	     45.81100406	     65.94234185	     10.13385167	     -9.22973038	     18.19090528	     16.26045146	     72.25036228
     30.01666670	     16.21689054	     -0.32789268	     -2.55958647	      0.76616842	      1.04913359	      0.67434967	     -8.07251962	     -3.01251686	      2.70325760	     59.92185273	      1.04583362	    -11.33909335	    -12.08546167	     -7.49999987	     -2.52719828	      2.14702433	      2.25588673	     15.43517288	      0.26939459	      2.34286808	     -6.35309215	     -7.49999987	    -29.97516303	     -3.20264946	      7.02235117	     -0.49119757	    -18.72685728	      2.37346202	     43.87754576	     66.42334257	     11.92816181	     -9.23150455	     18.97601004	     16.75562238	     72.43606469
     30.03333330	     16.32071744	     -0.59853784	     -2.78527010	      0.76452783	      1.05070933	      0.67439247	     -5.68992252	     -2.52448818	      2.80882599	     61.97892389	      1.08173629	     -7.70021970	    -11.54995971	     -7.49999987	     -4.65038781	      1.98532619	      2.29213585	     14.05266443	      0.24526526	      2.81352162	     -6.57791599	     -7.49999987	    -30.09164740	     -2.98570475	      7.37834003	     -1.41310093	    -18.24880509	      2.39221062	     42.08117105	     66.77460451	     13.68277939	     -9.37645696	     19.27474337	     17.42735076	     72.59066531
     30.05000000	     16.35448871	     -0.88208471	     -2.87187971	      0.76099625	      1.05328357	      0.67409863	     -3.33464494	     -1.95753273	      2.64648943	     63.08039633	      1.10096061	     -4.22562910	    -11.13004231	     -7.49999987	     -6.75878570	      1.79680837	      2.59440486	     12.51391515	      0.21840902	      3.25533787	     -6.74240472	     -7.49999987	    -30.10637133	     -2.68618154	      7.67864326	     -2.32724205	    -17.80441806	      2.45708670	     40.48402358	     66.84428673	     15.44372889	     -9.56614691	     19.07847018	     18.12666904	     72.49977075
     30.06666670	     16.32090452	     -1.16298712	     -2.80931003	      0.75742495	      1.05587597	      0.67288968	     -0.84497176	     -1.35209498	      2.30923816	     63.39865318	      1.10651524	     -1.53536448	    -11.06149193	     -7.49999987	     -8.76267040	      1.57509867	      3.02750904	     11.00017766	      0.19198932	      3.70089083	     -6.69268359	     -7.49999987	    -30.04700240	     -2.30056954	      7.96076333	     -3.35442182	    -17.36466386	      2.39332055	     38.94416022	     66.76087942	     17.21345816	     -9.68535007	     18.56838469	     18.73352432	     72.33252929
     30.08333330	     16.20353049	     -1.35689909	     -2.56441107	      0.75518882	      1.05850470	      0.67167336	      1.80457270	     -0.83261455	      1.89608768	     63.03521142	      1.10017198	      0.27550427	    -11.26589216	     -7.49999987	    -10.58345609	      1.39535961	      3.68834062	      9.61433790	      0.16780185	      4.14873037	     -6.67078935	     -7.49999987	    -29.93464246	     -1.92198142	      8.11698013	     -4.56067578	    -16.79692831	      2.01169293	     37.46214457	     66.49341593	     18.94617883	     -9.77348872	     17.66544992	     19.36166748	     72.03971918
     30.10000000	     16.22578172	     -1.64297296	     -2.20462907	      0.75462770	      1.05990749	      0.67094072	      4.15130462	     -0.30376605	      1.39779308	     61.88257436	      1.08005467	      1.30470670	    -11.63752136	     -7.49999987	    -12.43464907	      1.05246882	      4.19785204	      8.44373833	      0.14737104	      4.77747559	     -6.50411875	     -7.49999987	    -29.99218611	     -1.37637606	      8.42165794	     -6.25243062	    -16.41128829	      1.70057962	     36.41468765	     66.31004753	     20.69938166	     -9.91078902	     17.11923576	     20.27602255	     71.85048198
     30.11666670	     16.20936432	     -1.87694726	     -1.70888089	      0.75474397	      1.06126113	      0.67048720	      6.15876886	      0.09558731	      0.77649197	     59.79042831	      1.04353984	      1.97504985	    -11.93415335	     -7.49999987	    -14.12371430	      0.70319233	      4.75331096	      7.48991101	      0.13072361	      5.65162961	     -6.30620971	     -7.49999987	    -30.07304138	     -0.79261003	      8.48612128	     -8.19235867	    -15.86129116	      0.76732384	     35.94395441	     65.30440819	     21.94607256	    -10.05887749	     15.50667042	     22.18978916	     70.21080579
